<?xml version="1.0" encoding="UTF-8" standalone="no"?>
<!-- Created with Inkscape (http://www.inkscape.org/) -->
<svg
   xmlns:dc="http://purl.org/dc/elements/1.1/"
   xmlns:cc="http://creativecommons.org/ns#"
   xmlns:rdf="http://www.w3.org/1999/02/22-rdf-syntax-ns#"
   xmlns:svg="http://www.w3.org/2000/svg"
   xmlns="http://www.w3.org/2000/svg"
   xmlns:sodipodi="http://sodipodi.sourceforge.net/DTD/sodipodi-0.dtd"
   xmlns:inkscape="http://www.inkscape.org/namespaces/inkscape"
   width="744.09448819"
   height="1052.3622047"
   id="svg2"
   sodipodi:version="0.32"
   inkscape:version="0.46+pre4"
   sodipodi:docname="soldier aiming.svg"
   inkscape:output_extension="org.inkscape.output.svg.inkscape">
  <defs
     id="defs4">
    <inkscape:perspective
       sodipodi:type="inkscape:persp3d"
       inkscape:vp_x="0 : 526.18109 : 1"
       inkscape:vp_y="0 : 1000 : 0"
       inkscape:vp_z="744.09448 : 526.18109 : 1"
       inkscape:persp3d-origin="372.04724 : 350.78739 : 1"
       id="perspective10" />
    <inkscape:perspective
       id="perspective2390"
       inkscape:persp3d-origin="372.04724 : 350.78739 : 1"
       inkscape:vp_z="744.09448 : 526.18109 : 1"
       inkscape:vp_y="0 : 1000 : 0"
       inkscape:vp_x="0 : 526.18109 : 1"
       sodipodi:type="inkscape:persp3d" />
  </defs>
  <sodipodi:namedview
     id="base"
     pagecolor="#ffffff"
     bordercolor="#666666"
     borderopacity="1.0"
     gridtolerance="10000"
     guidetolerance="10"
     objecttolerance="10"
     inkscape:pageopacity="0.0"
     inkscape:pageshadow="2"
     inkscape:zoom="0.35"
     inkscape:cx="375"
     inkscape:cy="520"
     inkscape:document-units="px"
     inkscape:current-layer="layer1"
     showgrid="false"
     inkscape:window-width="640"
     inkscape:window-height="675"
     inkscape:window-x="208"
     inkscape:window-y="205" />
  <metadata
     id="metadata7">
    <rdf:RDF>
      <cc:Work
         rdf:about="">
        <dc:format>image/svg+xml</dc:format>
        <dc:type
           rdf:resource="http://purl.org/dc/dcmitype/StillImage" />
      </cc:Work>
    </rdf:RDF>
  </metadata>
  <g
     inkscape:label="Layer 1"
     inkscape:groupmode="layer"
     id="layer1">
    <path
       style="fill:#000000"
       d="M 113.97717,630.55511 C 107.37655,626.10107 100.71783,620.87383 99.17999,618.93902 C 88.990438,606.11913 79.916104,552.99649 86.259812,543.30225 C 87.954449,540.71258 90.049122,534.66973 90.914636,529.87371 C 91.78015,525.07768 93.424094,519.97108 94.567802,518.5257 C 98.279853,513.83464 94.018911,499.93427 87.359722,495.01092 L 81.125881,490.40204 L 86.515268,480.26601 C 89.479439,474.69119 91.898276,469.02104 91.89051,467.6657 C 91.874262,464.83577 80.503692,457.59087 70.645892,454.12944 C 66.277032,452.59536 62.371341,448.6736 59.455446,442.89289 C 56.991847,438.00888 53.854761,432.78697 52.484133,431.28861 C 48.860733,427.32758 46.607648,403.11496 49.222498,396.23745 C 50.641268,392.50574 50.667722,389.90164 49.295437,389.05351 C 48.111533,388.32182 47.142865,385.536 47.142865,382.8628 C 47.142865,375.13886 56.529659,354.57975 60.653854,353.27078 C 63.128017,352.4855 64.08263,350.37711 63.453659,347.08696 C 62.928782,344.34118 63.574471,339.26679 64.888566,335.81048 C 67.001633,330.25266 68.248294,329.60663 75.674566,330.22119 C 82.420191,330.77941 84.211983,331.90627 84.786523,335.95175 C 85.35032,339.92156 86.951919,340.98745 92.353146,340.98745 C 98.951347,340.98745 99.15696,340.69388 97.915738,333.04519 C 95.896489,320.60204 107.69905,269.25021 116.71981,251.23048 C 120.37839,243.92215 120.46096,242.17665 117.59815,232.66423 C 115.86021,226.88949 115.0371,218.9374 115.76903,214.99292 C 117.78172,204.14609 128.99341,185.64953 138.37756,177.69433 C 164.10386,155.88542 165.31845,155.22816 179.96141,155.19175 C 200.09034,155.14166 200.18472,155.01102 198.29537,129.81052 C 196.98233,112.29686 197.40306,106.2029 200.59201,96.547402 C 205.94435,80.341507 209.37875,75.677239 220.56096,69.427374 C 244.22925,56.198922 272.24458,52.75148 288.5359,61.062671 C 299.49885,66.655545 299.94065,67.249937 314.43644,95.906861 C 327.46062,121.6546 327.6328,124.33926 316.43996,127.14849 C 310.83565,128.55506 310.68081,129.04352 311.94789,141.32023 C 312.66967,148.31345 314.33698,154.39412 315.65304,154.8328 C 316.96911,155.27149 319.56129,158.56086 321.41342,162.14249 C 324.27488,167.67595 326.11763,168.65455 333.67582,168.65455 C 339.90438,168.65455 342.5707,167.69343 342.5707,165.44824 C 342.5707,163.68476 344.48485,161.6344 346.82439,160.89185 C 349.16391,160.14932 351.66028,157.31182 352.37188,154.5863 C 353.08348,151.86076 355.95323,146.81015 358.74912,143.36271 L 363.83256,137.09463 L 399.64199,140.71178 C 441.12088,144.90162 445.52283,146.18219 445.52283,154.05898 L 445.52283,159.70219 L 524.41548,159.60685 L 603.30814,159.51153 L 611.95532,148.3013 C 623.48452,133.35473 627.571,134.21246 629.04617,151.88855 L 630.16522,165.29742 L 668.20536,164.63338 C 689.12742,164.26816 707.20559,163.00924 708.37906,161.83576 C 709.55252,160.66231 712.32549,159.70219 714.5412,159.70219 C 717.70409,159.70219 718.57009,161.50567 718.57128,168.09503 L 718.5728,176.48787 L 673.80949,175.72595 C 645.09075,175.23713 629.04617,175.76246 629.04617,177.19157 C 629.04617,178.47603 625.47134,178.93958 620.60215,178.28648 C 613.16572,177.28906 611.52656,177.97799 606.86545,184.05997 C 602.73347,189.45155 600.41013,190.67424 596.27101,189.63539 C 593.35502,188.90351 587.19907,189.12586 582.59111,190.12949 L 574.21298,191.95425 L 585.40343,193.38132 C 593.93744,194.46964 590.74973,194.91095 571.97489,195.24039 L 547.3559,195.67237 L 529.48769,206.29886 C 511.68716,216.88511 493.54811,235.93146 495.72866,241.74644 C 496.26325,243.17208 491.85656,252.73991 485.93599,263.00829 C 472.09857,287.00733 469.23406,292.69391 464.13019,306.29706 C 460.74354,315.32341 457.56449,319.10216 447.69149,325.8367 C 440.95945,330.42875 429.91215,335.57671 423.14193,337.27663 L 410.83244,340.36737 L 409.35807,378.16541 C 407.10741,435.86481 395.16574,492.80038 382.86612,504.47383 C 377.41655,509.64594 372.16364,525.81312 373.8107,532.34411 C 374.12114,533.57506 374.39502,537.07584 374.4193,540.12362 C 374.44361,543.17139 376.10008,548.20416 378.10038,551.30751 C 383.79855,560.14799 404.80199,580.46304 408.24386,580.46304 C 413.25611,580.46304 423.14193,589.38145 423.14193,593.90319 C 423.14193,605.72037 381.23402,603.01432 353.76115,589.42319 C 346.99093,586.07388 337.13181,582.77821 331.852,582.09949 C 317.69731,580.27987 315.0555,577.18614 316.19598,563.7653 C 316.72312,557.56219 318.75987,548.96193 320.72212,544.65361 C 324.39851,536.58167 326.29406,528.37076 328.41926,511.31202 C 329.34187,503.90636 328.80538,501.00032 326.25176,499.57125 C 321.9047,497.13852 322.9049,466.59795 327.92709,448.41575 C 329.7971,441.64553 331.33908,435.23182 331.35369,434.16306 C 331.3683,433.09431 322.0181,441.15143 310.57542,452.06778 C 299.13279,462.98413 282.34109,476.88016 273.26054,482.94784 C 257.68352,493.3565 226.05057,508.75704 220.1252,508.81684 C 216.48593,508.85357 209.12441,533.36949 206.08334,555.58014 C 202.97134,578.30894 196.88116,596.14157 188.19881,607.94774 C 184.47499,613.01135 181.42823,618.29103 181.42823,619.68039 C 181.42823,621.06973 179.16216,624.27852 176.39253,626.81099 C 166.88479,635.50462 157.60859,638.65337 141.50491,638.65337 C 127.36663,638.65337 124.90518,637.92923 113.97717,630.55511 z M 91.485013,347.8416 C 92.044535,346.16303 91.205252,345.32375 89.526685,345.88327 C 87.911053,346.4218 86.148557,348.1843 85.610028,349.79993 C 85.050505,351.4785 85.889789,352.31778 87.568356,351.75826 C 89.183988,351.21973 90.946462,349.45723 91.485013,347.8416 z M 329.70169,330.14138 C 336.77965,326.02412 342.55878,321.99623 342.54418,321.19052 C 342.50721,319.14649 317.89245,302.25317 316.69539,303.45023 C 314.6577,305.48793 312.82705,339.33301 314.79995,338.4929 C 315.91794,338.01681 322.62373,334.25863 329.70169,330.14138 z M 415.98295,264.88985 C 432.55533,259.69473 437.66572,256.01719 464.77617,229.77736 C 482.71242,212.41713 490.28462,203.28556 490.28462,199.01589 C 490.28462,195.56424 475.89945,198.76523 457.83232,206.23718 L 437.68951,214.56757 L 437.03254,228.17957 L 436.37555,241.79156 L 420.90628,245.11295 L 405.43698,248.43434 L 404.77758,235.96105 L 404.11817,223.48775 L 391.24915,222.81654 C 378.97607,222.17641 378.38014,222.39368 378.38014,227.50839 C 378.38014,230.45805 376.85522,235.92821 374.99145,239.66426 C 370.57258,248.52203 372.36444,252.52333 384.85518,261.69048 C 396.96436,270.5776 397.62312,270.6453 415.98295,264.88985 z M 400.05454,217.70378 C 404.11931,213.63901 400.82392,206.70207 394.82822,206.70207 C 390.17239,206.70207 389.55859,207.56083 390.42903,212.85682 C 390.98539,216.24193 391.52341,219.26335 391.62464,219.57109 C 392.13221,221.11425 397.92786,219.83046 400.05454,217.70378 z M 439.23064,157.93726 C 440.31014,156.85776 440.54905,154.29539 439.76151,152.24314 C 438.52792,149.02839 434.35516,148.51175 409.62476,148.51175 C 382.9285,148.51175 380.82091,148.82356 379.50554,152.9679 C 378.72767,155.41878 378.56277,158.18842 379.1391,159.12264 C 380.58848,161.47203 436.8048,160.3631 439.23064,157.93726 z M 623.36733,154.66649 C 621.26975,144.87555 620.91687,144.72018 614.48977,150.75812 C 606.51463,158.25039 607.31475,161.94028 616.91452,161.94028 C 624.78031,161.94028 624.89738,161.80832 623.36733,154.66649 z"
       id="path2396" />
  </g>
</svg>
