<?xml version="1.0" encoding="UTF-8" standalone="no"?>
<svg width="155px" height="77px" viewBox="0 0 155 77" version="1.1" xmlns="http://www.w3.org/2000/svg" xmlns:xlink="http://www.w3.org/1999/xlink" xmlns:sketch="http://www.bohemiancoding.com/sketch/ns">
    <!-- Generator: Sketch 3.2.2 (9983) - http://www.bohemiancoding.com/sketch -->
    <title>Slice 1</title>
    <desc>Created with Sketch.</desc>
    <defs></defs>
    <g id="Page-1" stroke="none" stroke-width="1" fill="none" fill-rule="evenodd" sketch:type="MSPage">
        <g id="cannon" sketch:type="MSLayerGroup" fill="#000000">
            <g id="Group" sketch:type="MSShapeGroup">
                <path d="M106.352,46.32 C106.352,63.187 92.672,76.882 75.797,76.882 C58.914,76.882 45.242,63.188 45.242,46.32 C45.242,29.445 58.914,15.75 75.797,15.75 C92.672,15.75 106.352,29.445 106.352,46.32 L97.797,46.32 C97.797,34.172 87.944,24.32 75.797,24.32 C63.649,24.32 53.797,34.172 53.797,46.32 C53.797,58.461 63.649,68.312 75.797,68.312 C87.944,68.312 97.797,58.459 97.797,46.32 L106.352,46.32 L106.352,46.32 Z" id="Shape"></path>
                <path d="M152.703,0 C149.819,3.461 145.953,3.461 145.953,3.461 L44.344,5.68 C35.078,6 33.391,13.359 33.18,17.523 C32.297,16.211 30.797,15.359 29.11,15.359 C26.391,15.359 24.196,17.554 24.196,20.281 C24.196,22.992 26.391,25.172 29.11,25.172 C31.008,25.172 32.649,24.086 33.463,22.516 C33.901,25.102 35.158,29.399 38.735,31.727 L21.914,59.07 L12.436,60.015 L12.436,56.89 L0,57.781 L1.32,74.688 L30.804,71.071 L46.859,44.587 L55.179,32.095 L59.765,31.501 L69.532,41.267 C68.844,42.12 68.329,43.095 68.032,44.197 L50.523,44.197 L50.523,47.3 L67.812,47.3 C67.96,48.542 68.368,49.697 69.023,50.714 L56.945,62.784 L59.133,64.972 L71.164,52.932 C72.18,53.643 73.367,54.096 74.641,54.291 L74.641,71.393 L77.727,71.393 L77.727,54.143 C78.891,53.862 79.955,53.315 80.852,52.581 L93.235,64.97 L95.416,62.782 L82.828,50.227 C83.344,49.33 83.656,48.344 83.781,47.297 L101.85,47.297 L101.85,44.195 L83.562,44.195 C83.32,43.289 82.937,42.437 82.415,41.687 L95.415,28.687 L93.868,27.125 L147.187,20.281 C147.187,20.281 150.993,19.703 154.39,23.086 L152.703,0 L152.703,0 Z M74.641,29.594 L74.641,38.344 C73.658,38.508 72.735,38.821 71.899,39.289 L63.633,31.008 L74.641,29.594 L74.641,29.594 Z M80.195,39.539 C79.445,39.062 78.609,38.711 77.726,38.492 L77.726,29.187 L92.421,27.312 L80.195,39.539 L80.195,39.539 Z" id="Shape"></path>
            </g>
        </g>
    </g>
</svg>